<svg viewBox="150 0 650 400" fill="none" xmlns="http://www.w3.org/2000/svg">

<path d="M598.45 -0.589844C564.649 -0.320993 383.526 -0.242839 383.526 -0.242839C383.304 124.638 384.498 216.241 384.576 294.23L395.739 312.024H614.502V25.226H607.875C604.605 21.8435 596.264 8.13216 596.358 8.13216C597.152 8.12904 597.308 8.24158 605.08 8.13216C605.08 8.13216 599.622 0.916969 598.45 -0.589844ZM471.099 8.13529C513.118 8.02275 561.189 7.96648 585.191 8.13529C585.191 8.30098 595.858 24.4508 596.705 25.2323L403.761 23.8318L392.945 8.47917C392.945 8.48229 429.083 8.22595 471.099 8.13529ZM417.369 35.3486H433.419V304.352H417.369V35.3486Z" fill="white"/>
</svg>
