<svg width="998" height="545" viewBox="0 0 998 545" fill="none" xmlns="http://www.w3.org/2000/svg">
<g clip-path="url(#clip0_101_55)">
<g clip-path="url(#clip1_101_55)">
<g clip-path="url(#clip2_101_55)">
<g clip-path="url(#clip3_101_55)">
<g clip-path="url(#clip4_101_55)">
<g clip-path="url(#clip5_101_55)">
<path d="M66.8856 485.61L12.922 492.181L0.0224609 386.21L51.5748 379.934C64.6351 378.454 74.5689 379.766 81.3697 383.877C88.1705 387.984 92.1336 394.641 93.2523 403.846C93.9806 409.84 92.852 415.22 89.8633 419.987C86.8517 424.761 81.7831 428.176 74.6509 430.236L74.6706 430.397C82.9215 430.472 89.3319 432.546 93.9018 436.617C98.4718 440.665 101.146 445.904 101.93 452.328C103.038 461.425 100.683 468.863 94.8631 474.636C89.0432 480.391 79.7163 484.049 66.8856 485.61V485.61ZM34.3414 446.049L37.1956 469.496L59.8617 466.737C64.8778 466.126 68.4997 464.66 70.7272 462.341C72.9319 460.001 73.7979 456.898 73.3288 453.033C72.8728 449.3 71.3014 446.593 68.6079 444.917C65.8883 443.221 62.0237 442.68 57.0075 443.29L34.3414 446.049ZM29.1252 403.19L31.94 426.312L52.0308 423.868C61.8662 422.671 66.3148 418.219 65.3765 410.509C64.4382 402.803 59.0514 399.545 49.216 400.746L29.1252 403.19ZM159.489 367.3C170.249 366.325 179.714 367.667 187.883 371.319C196.075 374.97 202.629 380.678 207.55 388.45C212.471 396.242 215.45 405.887 216.49 417.386C217.527 428.865 216.326 438.877 212.882 447.423C209.437 455.97 204.014 462.774 196.613 467.836C189.228 472.875 180.157 475.88 169.393 476.851C158.655 477.822 149.168 476.493 140.937 472.872C132.702 469.223 126.124 463.505 121.2 455.714C116.279 447.922 113.3 438.29 112.264 426.811C111.224 415.309 112.424 405.287 115.869 396.737C119.314 388.214 124.76 381.417 132.21 376.354C139.657 371.289 148.751 368.271 159.489 367.3V367.3ZM161.457 389.06C156.316 389.526 152.081 391.15 148.754 393.929C145.428 396.734 143.082 400.658 141.714 405.7C140.326 410.765 139.966 416.949 140.625 424.246C141.275 431.433 142.738 437.417 145.015 442.197C147.268 446.977 150.283 450.438 154.056 452.577C157.832 454.739 162.29 455.589 167.428 455.123C172.592 454.657 176.801 453.024 180.065 450.228C183.349 447.45 185.672 443.506 187.033 438.398C188.414 433.287 188.782 427.139 188.132 419.951C187.473 412.655 186.006 406.638 183.733 401.901C181.482 397.187 178.494 393.745 174.76 391.58C171.053 389.434 166.618 388.595 161.457 389.06ZM280.529 358.521C291.316 357.891 300.731 359.528 308.785 363.439C316.856 367.349 323.227 373.264 327.898 381.184C332.57 389.126 335.244 398.86 335.916 410.391C336.589 421.897 335.07 431.867 331.356 440.298C327.642 448.732 322.006 455.359 314.444 460.185C306.905 464.985 297.742 467.701 286.956 468.334C276.192 468.964 266.753 467.337 258.64 463.449C250.524 459.542 244.13 453.617 239.458 445.678C234.787 437.736 232.116 428.012 231.44 416.503C230.764 404.975 232.283 394.995 235.997 386.564C239.711 378.152 245.37 371.535 252.978 366.706C260.582 361.88 269.768 359.151 280.529 358.521V358.521ZM281.805 380.334C276.651 380.636 272.37 382.125 268.955 384.799C265.543 387.496 263.072 391.344 261.547 396.34C260.002 401.36 259.441 407.527 259.87 414.84C260.294 422.044 261.567 428.071 263.689 432.923C265.792 437.772 268.695 441.328 272.396 443.585C276.1 445.865 280.529 446.856 285.683 446.554C290.856 446.252 295.118 444.753 298.464 442.06C301.833 439.386 304.281 435.518 305.806 430.456C307.351 425.394 307.912 419.259 307.489 412.055C307.063 404.739 305.787 398.679 303.664 393.873C301.564 389.09 298.687 385.553 295.026 383.273C291.388 381.01 286.982 380.032 281.805 380.331V380.334ZM419.914 354.679L450.808 353.829L402.317 415.191L400.43 411.041L375.898 442.634L369.933 420.283L419.914 354.679ZM353.934 356.497L381.744 355.732L384.68 462.442L356.87 463.21L353.934 356.497ZM390.257 406.3L410.686 390.215L455.68 460.49L424.13 461.356L390.257 406.3ZM509.693 352.379C519.623 352.399 528.379 353.961 535.961 357.061C543.566 360.138 550.163 364.659 555.75 370.617L542.293 388.536C537.667 383.67 532.687 380.019 527.356 377.578C522.025 375.141 515.959 373.914 509.158 373.901C505.179 373.891 501.941 374.324 499.444 375.193C496.97 376.04 495.195 377.217 494.123 378.723C493.027 380.229 492.476 381.958 492.469 383.903C492.466 386.157 493.522 388.073 495.642 389.651C497.738 391.209 501.16 392.538 505.9 393.644L523.839 397.715C534.508 400.208 542.319 403.833 547.273 408.59C552.226 413.347 554.697 419.662 554.68 427.536C554.664 435.082 552.705 441.476 548.801 446.715C544.92 451.934 539.576 455.861 532.766 458.492C525.981 461.104 518.213 462.4 509.466 462.38C502.357 462.367 495.569 461.576 489.1 460.008C482.631 458.42 476.804 456.166 471.627 453.247C466.473 450.327 462.117 446.971 458.557 443.182L472.014 424.61C474.698 427.743 478.005 430.528 481.938 432.962C485.869 435.397 490.186 437.322 494.884 438.73C499.562 440.16 504.329 440.882 509.184 440.892C512.967 440.898 516.129 440.524 518.665 439.763C521.205 439.002 523.065 437.87 524.249 436.361C525.433 434.855 526.027 433.084 526.034 431.053C526.037 428.779 525.233 426.864 523.616 425.305C522.002 423.727 518.931 422.399 514.407 421.316L494.667 416.913C488.634 415.503 483.28 413.633 478.602 411.303C473.904 408.974 470.213 405.841 467.533 401.898C464.849 397.954 463.517 393.01 463.527 387.059C463.54 380.39 465.381 374.442 469.045 369.226C472.73 363.983 478.031 359.863 484.947 356.858C491.843 353.852 500.09 352.363 509.693 352.379V352.379ZM566.363 354.377L663.887 357.294L663.244 378.772L628.453 377.732L625.904 462.957L598.097 462.124L600.642 376.899L565.72 375.856L566.363 354.377ZM729.5 359.489C740.287 360.125 749.447 362.858 756.982 367.684C764.541 372.513 770.174 379.133 773.884 387.545C777.595 395.979 779.107 405.962 778.428 417.487C777.749 428.993 775.072 438.717 770.397 446.656C765.722 454.595 759.348 460.52 751.274 464.424C743.223 468.308 733.804 469.932 723.021 469.299C712.257 468.662 703.075 465.943 695.47 461.133C687.869 456.304 682.213 449.671 678.502 441.236C674.792 432.802 673.28 422.832 673.959 411.323C674.638 399.795 677.315 390.061 681.99 382.122C686.665 374.202 693.059 368.294 701.178 364.39C709.295 360.486 718.736 358.852 729.5 359.489V359.489ZM728.211 381.298C723.057 380.993 718.631 381.971 714.928 384.228C711.22 386.508 708.32 390.038 706.217 394.825C704.095 399.627 702.815 405.687 702.386 413.003C701.959 420.207 702.52 426.342 704.059 431.404C705.578 436.466 708.045 440.337 711.46 443.014C714.872 445.714 719.153 447.213 724.304 447.519C729.477 447.824 733.886 446.836 737.528 444.553C741.189 442.292 744.073 438.74 746.176 433.891C748.302 429.042 749.578 423.015 750.001 415.811C750.434 408.498 749.876 402.331 748.335 397.308C746.812 392.312 744.365 388.463 740.996 385.767C737.649 383.093 733.388 381.604 728.211 381.298V381.298ZM802.623 366.073L853.368 370.636C866.045 371.778 875.634 375.636 882.136 382.217C888.635 388.818 891.44 397.065 890.551 406.953C889.577 417.802 885.335 425.755 877.832 430.81C870.349 435.869 860.271 437.827 847.591 436.686L844.878 437.926L823.77 436.026L820.279 474.843L793.06 472.396L802.623 366.073ZM825.538 416.356L845.209 418.127C850.566 418.609 854.693 417.894 857.59 415.978C860.461 414.085 862.111 410.775 862.534 406.048C862.951 401.429 861.914 397.922 859.427 395.523C856.918 393.145 852.984 391.715 847.627 391.236L827.956 389.464L825.538 416.356ZM836.555 429.37L860.956 425.407L890.203 481.132L859.585 478.38L836.555 429.37ZM987.557 492.811L902.883 482.799L915.422 376.784L997.976 386.547L995.453 407.885L940.525 401.389L937.98 422.927L981.668 428.094L979.29 448.194L935.601 443.027L933.039 464.693L990.086 471.438L987.557 492.811Z" fill="white"/>
</g>
</g>
</g>
</g>
<g clip-path="url(#clip6_101_55)">
<g clip-path="url(#clip7_101_55)">
<path d="M598.45 -0.589844C564.649 -0.320993 383.526 -0.242839 383.526 -0.242839C383.304 124.638 384.498 216.241 384.576 294.23L395.739 312.024H614.502V25.226H607.875C604.605 21.8435 596.264 8.13216 596.358 8.13216C597.152 8.12904 597.308 8.24158 605.08 8.13216C605.08 8.13216 599.622 0.916969 598.45 -0.589844ZM471.099 8.13529C513.118 8.02275 561.189 7.96648 585.191 8.13529C585.191 8.30098 595.858 24.4508 596.705 25.2323L403.761 23.8318L392.945 8.47917C392.945 8.48229 429.083 8.22595 471.099 8.13529ZM417.369 35.3486H433.419V304.352H417.369V35.3486Z" fill="white"/>
</g>
</g>
</g>
</g>
<defs>
<clipPath id="clip0_101_55">
<rect width="997.956" height="546.18" fill="white" transform="translate(0.0224609 -0.589844)"/>
</clipPath>
<clipPath id="clip1_101_55">
<rect width="997.956" height="546.18" fill="white" transform="translate(0.0224609 -0.589844)"/>
</clipPath>
<clipPath id="clip2_101_55">
<rect width="997.956" height="193.21" fill="white" transform="translate(0.0224609 352.38)"/>
</clipPath>
<clipPath id="clip3_101_55">
<rect width="997.956" height="193.21" fill="white" transform="translate(0.0224609 352.38)"/>
</clipPath>
<clipPath id="clip4_101_55">
<rect width="997.956" height="140.431" fill="white" transform="translate(0.0224609 352.38)"/>
</clipPath>
<clipPath id="clip5_101_55">
<rect width="997.956" height="140.431" fill="white" transform="translate(0.0224609 352.38)"/>
</clipPath>
<clipPath id="clip6_101_55">
<rect width="231.004" height="312.614" fill="white" transform="translate(383.498 -0.589844)"/>
</clipPath>
<clipPath id="clip7_101_55">
<rect width="231.004" height="312.614" fill="white" transform="translate(383.498 -0.589844)"/>
</clipPath>
</defs>
</svg>
